<mxfile host="app.diagrams.net" modified="2023-04-27T07:25:40.594Z" agent="Mozilla/5.0 (Windows NT 10.0; Win64; x64) AppleWebKit/537.36 (KHTML, like Gecko) Chrome/112.0.0.0 Safari/537.36" version="21.2.2" etag="r7SS2Sbv94pKRUBlzU_-" type="github">
  <diagram name="第 1 页" id="bYKWcUIMKpZeuXxMjEoz">
    <mxGraphModel>
      <root>
        <mxCell id="0" />
        <mxCell id="1" parent="0" />
      </root>
    </mxGraphModel>
  </diagram>
</mxfile>
